<mxfile host="app.diagrams.net" modified="2023-05-30T09:05:30.652Z" agent="Mozilla/5.0 (Macintosh; Intel Mac OS X 10_15_7) AppleWebKit/537.36 (KHTML, like Gecko) Chrome/113.0.0.0 Safari/537.36" etag="6RHDSXtfG-o80fdgJWDv" version="21.3.3" type="github">
  <diagram name="第 1 页" id="3nudzDqvDU5Y6kP5WSou">
    <mxGraphModel dx="2099" dy="1850" grid="1" gridSize="10" guides="1" tooltips="1" connect="1" arrows="1" fold="1" page="1" pageScale="1" pageWidth="827" pageHeight="1169" math="0" shadow="0">
      <root>
        <mxCell id="0" />
        <mxCell id="1" parent="0" />
        <mxCell id="iS4poByR3l4oACe20Y_C-1" value="规则队列" style="rounded=0;whiteSpace=wrap;html=1;fillColor=#e1d5e7;strokeColor=#9673a6;" vertex="1" parent="1">
          <mxGeometry x="30" y="60" width="120" height="60" as="geometry" />
        </mxCell>
        <mxCell id="iS4poByR3l4oACe20Y_C-2" value="功能队列" style="rounded=0;whiteSpace=wrap;html=1;fillColor=#e1d5e7;strokeColor=#9673a6;" vertex="1" parent="1">
          <mxGeometry x="180" y="60" width="120" height="60" as="geometry" />
        </mxCell>
        <mxCell id="iS4poByR3l4oACe20Y_C-3" value="效果队列" style="rounded=0;whiteSpace=wrap;html=1;fillColor=#e1d5e7;strokeColor=#9673a6;" vertex="1" parent="1">
          <mxGeometry x="330" y="60" width="120" height="60" as="geometry" />
        </mxCell>
        <mxCell id="iS4poByR3l4oACe20Y_C-4" value="" style="rounded=1;whiteSpace=wrap;html=1;" vertex="1" parent="1">
          <mxGeometry x="55" y="160" width="70" height="30" as="geometry" />
        </mxCell>
        <mxCell id="iS4poByR3l4oACe20Y_C-5" value="" style="rounded=1;whiteSpace=wrap;html=1;" vertex="1" parent="1">
          <mxGeometry x="65" y="170" width="70" height="30" as="geometry" />
        </mxCell>
        <mxCell id="iS4poByR3l4oACe20Y_C-6" value="" style="rounded=1;whiteSpace=wrap;html=1;" vertex="1" parent="1">
          <mxGeometry x="75" y="180" width="70" height="30" as="geometry" />
        </mxCell>
        <mxCell id="iS4poByR3l4oACe20Y_C-7" value="" style="rounded=1;whiteSpace=wrap;html=1;" vertex="1" parent="1">
          <mxGeometry x="85" y="190" width="70" height="30" as="geometry" />
        </mxCell>
        <mxCell id="iS4poByR3l4oACe20Y_C-8" value="" style="rounded=1;whiteSpace=wrap;html=1;" vertex="1" parent="1">
          <mxGeometry x="95" y="200" width="70" height="30" as="geometry" />
        </mxCell>
        <mxCell id="iS4poByR3l4oACe20Y_C-14" value="" style="rounded=1;whiteSpace=wrap;html=1;" vertex="1" parent="1">
          <mxGeometry x="190" y="160" width="70" height="30" as="geometry" />
        </mxCell>
        <mxCell id="iS4poByR3l4oACe20Y_C-15" value="" style="rounded=1;whiteSpace=wrap;html=1;" vertex="1" parent="1">
          <mxGeometry x="200" y="170" width="70" height="30" as="geometry" />
        </mxCell>
        <mxCell id="iS4poByR3l4oACe20Y_C-16" value="" style="rounded=1;whiteSpace=wrap;html=1;" vertex="1" parent="1">
          <mxGeometry x="210" y="180" width="70" height="30" as="geometry" />
        </mxCell>
        <mxCell id="iS4poByR3l4oACe20Y_C-17" value="" style="rounded=1;whiteSpace=wrap;html=1;" vertex="1" parent="1">
          <mxGeometry x="220" y="190" width="70" height="30" as="geometry" />
        </mxCell>
        <mxCell id="iS4poByR3l4oACe20Y_C-18" value="" style="rounded=1;whiteSpace=wrap;html=1;" vertex="1" parent="1">
          <mxGeometry x="230" y="200" width="70" height="30" as="geometry" />
        </mxCell>
        <mxCell id="iS4poByR3l4oACe20Y_C-19" value="" style="rounded=1;whiteSpace=wrap;html=1;" vertex="1" parent="1">
          <mxGeometry x="340" y="160" width="70" height="30" as="geometry" />
        </mxCell>
        <mxCell id="iS4poByR3l4oACe20Y_C-20" value="" style="rounded=1;whiteSpace=wrap;html=1;" vertex="1" parent="1">
          <mxGeometry x="350" y="170" width="70" height="30" as="geometry" />
        </mxCell>
        <mxCell id="iS4poByR3l4oACe20Y_C-21" value="" style="rounded=1;whiteSpace=wrap;html=1;" vertex="1" parent="1">
          <mxGeometry x="360" y="180" width="70" height="30" as="geometry" />
        </mxCell>
        <mxCell id="iS4poByR3l4oACe20Y_C-22" value="" style="rounded=1;whiteSpace=wrap;html=1;" vertex="1" parent="1">
          <mxGeometry x="370" y="190" width="70" height="30" as="geometry" />
        </mxCell>
        <mxCell id="iS4poByR3l4oACe20Y_C-23" value="" style="rounded=1;whiteSpace=wrap;html=1;" vertex="1" parent="1">
          <mxGeometry x="380" y="200" width="70" height="30" as="geometry" />
        </mxCell>
        <mxCell id="iS4poByR3l4oACe20Y_C-24" value="硬打散" style="rounded=0;whiteSpace=wrap;html=1;fillColor=#e1d5e7;strokeColor=#9673a6;" vertex="1" parent="1">
          <mxGeometry x="-120" y="250" width="560" height="60" as="geometry" />
        </mxCell>
        <mxCell id="iS4poByR3l4oACe20Y_C-25" value="软打散" style="rounded=0;whiteSpace=wrap;html=1;fillColor=#e1d5e7;strokeColor=#9673a6;" vertex="1" parent="1">
          <mxGeometry x="330" y="330" width="110" height="60" as="geometry" />
        </mxCell>
        <mxCell id="iS4poByR3l4oACe20Y_C-27" value="merge &amp;amp; PK" style="rounded=0;whiteSpace=wrap;html=1;fillColor=#e1d5e7;strokeColor=#9673a6;" vertex="1" parent="1">
          <mxGeometry x="-120" y="430" width="560" height="60" as="geometry" />
        </mxCell>
        <mxCell id="iS4poByR3l4oACe20Y_C-29" value="流量货币化" style="text;html=1;align=center;verticalAlign=middle;resizable=0;points=[];autosize=1;strokeColor=none;fillColor=none;" vertex="1" parent="1">
          <mxGeometry x="460" y="445" width="80" height="30" as="geometry" />
        </mxCell>
        <mxCell id="iS4poByR3l4oACe20Y_C-30" value="contextdnn" style="text;html=1;align=center;verticalAlign=middle;resizable=0;points=[];autosize=1;strokeColor=none;fillColor=none;" vertex="1" parent="1">
          <mxGeometry x="460" y="345" width="80" height="30" as="geometry" />
        </mxCell>
        <mxCell id="iS4poByR3l4oACe20Y_C-32" value="" style="rounded=0;whiteSpace=wrap;html=1;fillColor=#e1d5e7;strokeColor=#9673a6;" vertex="1" parent="1">
          <mxGeometry x="-120" y="60" width="120" height="60" as="geometry" />
        </mxCell>
        <mxCell id="iS4poByR3l4oACe20Y_C-33" value="" style="rounded=1;whiteSpace=wrap;html=1;" vertex="1" parent="1">
          <mxGeometry x="-110" y="160" width="70" height="30" as="geometry" />
        </mxCell>
        <mxCell id="iS4poByR3l4oACe20Y_C-34" value="" style="rounded=1;whiteSpace=wrap;html=1;" vertex="1" parent="1">
          <mxGeometry x="-100" y="170" width="70" height="30" as="geometry" />
        </mxCell>
        <mxCell id="iS4poByR3l4oACe20Y_C-35" value="" style="rounded=1;whiteSpace=wrap;html=1;" vertex="1" parent="1">
          <mxGeometry x="-90" y="180" width="70" height="30" as="geometry" />
        </mxCell>
        <mxCell id="iS4poByR3l4oACe20Y_C-36" value="" style="rounded=1;whiteSpace=wrap;html=1;" vertex="1" parent="1">
          <mxGeometry x="-80" y="190" width="70" height="30" as="geometry" />
        </mxCell>
        <mxCell id="iS4poByR3l4oACe20Y_C-37" value="" style="rounded=1;whiteSpace=wrap;html=1;" vertex="1" parent="1">
          <mxGeometry x="-70" y="200" width="70" height="30" as="geometry" />
        </mxCell>
        <mxCell id="iS4poByR3l4oACe20Y_C-40" value="" style="html=1;shadow=0;dashed=0;align=center;verticalAlign=middle;shape=mxgraph.arrows2.uTurnArrow;dy=11;arrowHead=43;dx2=25;" vertex="1" parent="1">
          <mxGeometry x="-400" y="80" width="460" height="480" as="geometry" />
        </mxCell>
        <mxCell id="iS4poByR3l4oACe20Y_C-41" value="选出top1为当前槽位结果" style="rounded=0;whiteSpace=wrap;html=1;fillColor=#e1d5e7;strokeColor=#9673a6;" vertex="1" parent="1">
          <mxGeometry x="75" y="515" width="175" height="60" as="geometry" />
        </mxCell>
        <mxCell id="iS4poByR3l4oACe20Y_C-43" value="loop &amp;lt;&amp;nbsp; _loop" style="whiteSpace=wrap;html=1;" vertex="1" parent="1">
          <mxGeometry x="-450" y="310" width="120" height="60" as="geometry" />
        </mxCell>
        <mxCell id="iS4poByR3l4oACe20Y_C-44" value="" style="html=1;shadow=0;dashed=0;align=center;verticalAlign=middle;shape=mxgraph.arrows2.arrow;dy=0.6;dx=40;direction=south;notch=0;" vertex="1" parent="1">
          <mxGeometry x="-140" y="560" width="70" height="100" as="geometry" />
        </mxCell>
        <mxCell id="iS4poByR3l4oACe20Y_C-45" value="当所有槽位选择完成" style="text;html=1;align=center;verticalAlign=middle;resizable=0;points=[];autosize=1;strokeColor=none;fillColor=none;" vertex="1" parent="1">
          <mxGeometry x="-100" y="585" width="130" height="30" as="geometry" />
        </mxCell>
        <mxCell id="iS4poByR3l4oACe20Y_C-47" value="返回" style="rounded=0;whiteSpace=wrap;html=1;fillColor=#e1d5e7;strokeColor=#9673a6;" vertex="1" parent="1">
          <mxGeometry x="-160" y="660" width="110" height="60" as="geometry" />
        </mxCell>
        <mxCell id="iS4poByR3l4oACe20Y_C-48" value="执行顺序：优先和规则队列，若通过赢打散，直接返回" style="html=1;shadow=0;dashed=0;align=center;verticalAlign=middle;shape=mxgraph.arrows2.arrow;dy=0.6;dx=40;notch=0;" vertex="1" parent="1">
          <mxGeometry x="-100" y="-30" width="520" height="70" as="geometry" />
        </mxCell>
      </root>
    </mxGraphModel>
  </diagram>
</mxfile>
